<svg width="44" height="44" viewBox="0 0 44 44" fill="none" xmlns="http://www.w3.org/2000/svg" xmlns:xlink="http://www.w3.org/1999/xlink">
<path d="M8.25,8.375L35.75,8.375L35.75,5.375L8.25,5.375L8.25,8.375ZM35.75,8.375C35.681,8.375 35.625,8.319 35.625,8.25L38.625,8.25C38.625,6.662 37.338,5.375 35.75,5.375L35.75,8.375ZM35.625,8.25L35.625,35.75L38.625,35.75L38.625,8.25L35.625,8.25ZM35.625,35.75C35.625,35.681 35.681,35.625 35.75,35.625L35.75,38.625C37.338,38.625 38.625,37.338 38.625,35.75L35.625,35.75ZM35.75,35.625L8.25,35.625L8.25,38.625L35.75,38.625L35.75,35.625ZM8.25,35.625C8.319,35.625 8.375,35.681 8.375,35.75L5.375,35.75C5.375,37.338 6.662,38.625 8.25,38.625L8.25,35.625ZM8.375,35.75L8.375,8.25L5.375,8.25L5.375,35.75L8.375,35.75ZM8.375,8.25C8.375,8.319 8.319,8.375 8.25,8.375L8.25,5.375C6.662,5.375 5.375,6.662 5.375,8.25L8.375,8.25Z" fill="#C5C9D6"/>
<line x1="28.75" y1="4.125" x2="28.75" y2="9.625" stroke="#C5C9D6" stroke-width="1.5" stroke-miterlimit="3.999327" stroke-linecap="round" stroke-linejoin="round"/>
<line x1="12.25" y1="4.125" x2="12.25" y2="9.625" stroke="#C5C9D6" stroke-width="1.5" stroke-miterlimit="3.999327" stroke-linecap="round" stroke-linejoin="round"/>
<line x1="6.875" y1="13.625" x2="37.125" y2="13.625" stroke="#C5C9D6" stroke-width="1.5" stroke-miterlimit="3.999327" stroke-linecap="round" stroke-linejoin="round"/>
</svg>
