<svg width="62" height="60" viewBox="0 0 62 60" fill="none" xmlns="http://www.w3.org/2000/svg" xmlns:xlink="http://www.w3.org/1999/xlink">
<path d="M2.699,27.297C1.206,28.016 0.578,29.809 1.297,31.301C2.016,32.794 3.809,33.422 5.301,32.703L2.699,27.297ZM59.301,6.703C60.794,5.984 61.422,4.191 60.703,2.699C59.984,1.206 58.191,0.578 56.699,1.297L59.301,6.703ZM5.301,32.703L59.301,6.703L56.699,1.297L2.699,27.297L5.301,32.703Z" fill="#555658"/>
<path d="M52.488,58.591C53.92,59.426 55.756,58.943 56.591,57.512C57.426,56.08 56.943,54.244 55.512,53.409L52.488,58.591ZM7.512,25.409C6.08,24.574 4.244,25.057 3.409,26.488C2.574,27.92 3.057,29.756 4.488,30.591L7.512,25.409ZM55.512,53.409L7.512,25.409L4.488,30.591L52.488,58.591L55.512,53.409Z" fill="#555658"/>
</svg>
