<svg width="148" height="64" viewBox="0 0 148 64" fill="none" xmlns="http://www.w3.org/2000/svg" xmlns:xlink="http://www.w3.org/1999/xlink">
<path d="M104.2,1.6L104.2,0C103.317,0 102.6,0.716 102.6,1.6L104.2,1.6ZM104.2,62.4L102.6,62.4C102.6,63.022 102.96,63.587 103.524,63.85C104.087,64.113 104.752,64.026 105.228,63.626L104.2,62.4ZM125.443,44.594L126.496,43.39C125.903,42.871 125.019,42.862 124.415,43.368L125.443,44.594ZM145.8,62.4L144.747,63.604C145.219,64.018 145.89,64.116 146.461,63.857C147.033,63.597 147.4,63.028 147.4,62.4L145.8,62.4ZM145.8,1.6L147.4,1.6C147.4,0.716 146.684,0 145.8,0L145.8,1.6ZM102.6,1.6L102.6,62.4L105.8,62.4L105.8,1.6L102.6,1.6ZM105.228,63.626L126.471,45.82L124.415,43.368L103.172,61.174L105.228,63.626ZM124.389,45.799L144.747,63.604L146.854,61.196L126.496,43.39L124.389,45.799ZM147.4,62.4L147.4,1.6L144.2,1.6L144.2,62.4L147.4,62.4ZM145.8,0L104.2,0L104.2,3.2L145.8,3.2L145.8,0Z" fill="#555658"/>
<path d="M21,32C21,37.302 16.344,41.6 10.6,41.6C4.856,41.6 0.2,37.302 0.2,32C0.2,26.698 4.856,22.4 10.6,22.4C16.344,22.4 21,26.698 21,32Z" fill="#555658"/>
<circle cx="50.6" cy="12" r="10.4" fill="#555658"/>
<circle cx="50.6" cy="52" r="10.4" fill="#555658"/>
<path d="M8.759,29.838C7.564,30.413 7.062,31.847 7.637,33.041C8.212,34.236 9.647,34.738 10.841,34.163L8.759,29.838ZM54.041,13.363C55.235,12.788 55.737,11.353 55.162,10.159C54.587,8.965 53.153,8.463 51.959,9.038L54.041,13.363ZM10.841,34.163L54.041,13.363L51.959,9.038L8.759,29.838L10.841,34.163Z" fill="#555658"/>
<path d="M48.591,54.873C49.736,55.541 51.206,55.154 51.873,54.009C52.541,52.865 52.155,51.395 51.01,50.727L48.591,54.873ZM12.61,28.327C11.465,27.659 9.995,28.046 9.327,29.191C8.659,30.336 9.046,31.805 10.191,32.473L12.61,28.327ZM51.01,50.727L12.61,28.327L10.191,32.473L48.591,54.873L51.01,50.727Z" fill="#555658"/>
</svg>
