<svg width="146" height="62" viewBox="0 0 146 62" fill="none" xmlns="http://www.w3.org/2000/svg" xmlns:xlink="http://www.w3.org/1999/xlink">
<path d="M104.199,60.4L104.199,-0.4L145.799,-0.4L145.799,60.4L125.442,42.594L104.199,60.4Z" fill="#555658" stroke="#555658" stroke-width="1.6" stroke-miterlimit="3.999327" stroke-linecap="round" stroke-linejoin="round"/>
<path d="M20.999,30C20.999,35.302 16.343,39.6 10.599,39.6C4.855,39.6 0.199,35.302 0.199,30C0.199,24.698 4.855,20.4 10.599,20.4C16.343,20.4 20.999,24.698 20.999,30Z" fill="#555658"/>
<circle cx="50.599" cy="10" r="10.4" fill="#555658"/>
<circle cx="50.599" cy="50" r="10.4" fill="#555658"/>
<path d="M8.758,27.838C7.563,28.413 7.061,29.847 7.636,31.041C8.211,32.236 9.646,32.738 10.84,32.163L8.758,27.838ZM54.04,11.363C55.234,10.788 55.736,9.353 55.161,8.159C54.586,6.965 53.152,6.463 51.958,7.038L54.04,11.363ZM10.84,32.163L54.04,11.363L51.958,7.038L8.758,27.838L10.84,32.163Z" fill="#555658"/>
<path d="M48.589,52.873C49.734,53.541 51.204,53.154 51.871,52.009C52.539,50.864 52.153,49.395 51.008,48.727L48.589,52.873ZM12.608,26.327C11.463,25.659 9.993,26.046 9.325,27.191C8.657,28.336 9.044,29.805 10.189,30.473L12.608,26.327ZM51.008,48.727L12.608,26.327L10.189,30.473L48.589,52.873L51.008,48.727Z" fill="#555658"/>
</svg>
