<svg width="28" height="16" viewBox="0 0 28 16" fill="none" xmlns="http://www.w3.org/2000/svg" xmlns:xlink="http://www.w3.org/1999/xlink">
<path d="M1.136,1.271C0.734,0.893 0.101,0.913 -0.277,1.315C-0.655,1.718 -0.636,2.351 -0.233,2.729L1.136,1.271ZM13.226,14L12.541,14.729C12.926,15.09 13.526,15.09 13.911,14.729L13.226,14ZM26.685,2.729C27.087,2.351 27.107,1.718 26.729,1.315C26.351,0.913 25.718,0.893 25.315,1.271L26.685,2.729ZM-0.233,2.729L12.541,14.729L13.911,13.271L1.136,1.271L-0.233,2.729ZM13.911,14.729L26.685,2.729L25.315,1.271L12.541,13.271L13.911,14.729Z" fill="#000000"/>
</svg>
