<svg width="20" height="16" viewBox="0 0 20 16" fill="none" xmlns="http://www.w3.org/2000/svg" xmlns:xlink="http://www.w3.org/1999/xlink">
<path d="M0.979,1.404C0.649,0.96 0.023,0.868 -0.42,1.197C-0.864,1.526 -0.956,2.153 -0.627,2.596L0.979,1.404ZM9.088,14L8.285,14.596C8.474,14.85 8.772,15 9.088,15C9.404,15 9.702,14.85 9.891,14.596L9.088,14ZM18.803,2.596C19.132,2.153 19.04,1.526 18.597,1.197C18.153,0.868 17.527,0.96 17.198,1.404L18.803,2.596ZM-0.627,2.596L8.285,14.596L9.891,13.404L0.979,1.404L-0.627,2.596ZM9.891,14.596L18.803,2.596L17.198,1.404L8.285,13.404L9.891,14.596Z" fill="#000000"/>
</svg>
