<svg width="20" height="16" viewBox="0 0 20 16" fill="none" xmlns="http://www.w3.org/2000/svg" xmlns:xlink="http://www.w3.org/1999/xlink">
<path d="M2.832,1.445C2.526,0.986 1.905,0.862 1.445,1.168C0.986,1.474 0.862,2.095 1.168,2.555L2.832,1.445ZM10,14L9.168,14.555C9.353,14.833 9.666,15 10,15C10.334,15 10.647,14.833 10.832,14.555L10,14ZM18.832,2.555C19.138,2.095 19.014,1.474 18.555,1.168C18.095,0.862 17.474,0.986 17.168,1.445L18.832,2.555ZM1.168,2.555L9.168,14.555L10.832,13.445L2.832,1.445L1.168,2.555ZM10.832,14.555L18.832,2.555L17.168,1.445L9.168,13.445L10.832,14.555Z" fill="#000000"/>
</svg>
