<svg width="32" height="40" viewBox="0 0 32 40" fill="none" xmlns="http://www.w3.org/2000/svg" xmlns:xlink="http://www.w3.org/1999/xlink">
<path d="M30,38L29.128,39.221C29.585,39.547 30.187,39.591 30.686,39.334C31.186,39.077 31.5,38.562 31.5,38L30,38ZM16,28L16.872,26.779C16.35,26.407 15.65,26.407 15.128,26.779L16,28ZM2,38L0.5,38C0.5,38.562 0.814,39.077 1.314,39.334C1.813,39.591 2.415,39.547 2.872,39.221L2,38ZM6,2L6,0.5L6,2ZM26,2L26,0.5L26,2ZM30.872,36.779L16.872,26.779L15.128,29.221L29.128,39.221L30.872,36.779ZM15.128,26.779L1.128,36.779L2.872,39.221L16.872,29.221L15.128,26.779ZM3.5,38L3.5,6L0.5,6L0.5,38L3.5,38ZM3.5,6C3.5,5.337 3.763,4.701 4.232,4.232L2.111,2.111C1.079,3.142 0.5,4.541 0.5,6L3.5,6ZM4.232,4.232C4.701,3.763 5.337,3.5 6,3.5L6,0.5C4.541,0.5 3.142,1.079 2.111,2.111L4.232,4.232ZM6,3.5L26,3.5L26,0.5L6,0.5L6,3.5ZM26,3.5C26.663,3.5 27.299,3.763 27.768,4.232L29.889,2.111C28.858,1.079 27.459,0.5 26,0.5L26,3.5ZM27.768,4.232C28.237,4.701 28.5,5.337 28.5,6L31.5,6C31.5,4.541 30.921,3.142 29.889,2.111L27.768,4.232ZM28.5,6L28.5,38L31.5,38L31.5,6L28.5,6Z" fill="#BB362A"/>
</svg>
