<svg width="28" height="52" viewBox="0 0 28 52" fill="none" xmlns="http://www.w3.org/2000/svg" xmlns:xlink="http://www.w3.org/1999/xlink">
<g filter="url(#filter251_17)">
<path d="M26.707,2.707C27.098,2.317 27.098,1.683 26.707,1.293C26.317,0.902 25.683,0.902 25.293,1.293L26.707,2.707ZM2,26L1.293,25.293L0.586,26L1.293,26.707L2,26ZM25.293,50.707C25.683,51.098 26.317,51.098 26.707,50.707C27.098,50.317 27.098,49.683 26.707,49.293L25.293,50.707ZM25.293,1.293L1.293,25.293L2.707,26.707L26.707,2.707L25.293,1.293ZM1.293,26.707L25.293,50.707L26.707,49.293L2.707,25.293L1.293,26.707Z" transform="rotate(-360 14 26)" fill="#555658"/>
</g>
<defs>
<filter id="filter251_17" x="-2" y="-2" width="20" height="32" filterUnits="userSpaceOnUse" color-interpolation-filters="sRGB">
<feFlood flood-opacity="0" result="BackgroundImageFix"/>
<feColorMatrix in="SourceAlpha" type="matrix" values="0 0 0 0 0 0 0 0 0 0 0 0 0 0 0 0 0 0 127 0" result="hardAlpha"/>
<feMorphology radius="0" operator="dilate" in="SourceAlpha" result="0dropshadow"/>
<feOffset dx="0" dy="4"/>
<feGaussianBlur stdDeviation="2"/>
<feComposite in2="hardAlpha" operator="out"/>
<feColorMatrix type="matrix" values="0 0 0 0 0 0 0 0 0 0 0 0 0 0 0 0 0 0 0.25 0"/>
<feBlend mode="normal" in2="BackgroundImageFix" result="0dropshadow"/>
<feBlend mode="normal" in="SourceGraphic" in2="0dropshadow" result="shape"/>
</filter>
</defs>
</svg>
