<svg width="20" height="16" viewBox="0 0 20 16" fill="none" xmlns="http://www.w3.org/2000/svg" xmlns:xlink="http://www.w3.org/1999/xlink">
<path d="M1.711,1.42C1.39,0.97 0.766,0.865 0.316,1.186C-0.134,1.506 -0.238,2.131 0.082,2.58L1.711,1.42ZM9.448,14L8.634,14.58C8.821,14.844 9.125,15 9.448,15C9.772,15 10.075,14.844 10.263,14.58L9.448,14ZM18.814,2.58C19.135,2.131 19.03,1.506 18.58,1.186C18.131,0.865 17.506,0.97 17.186,1.42L18.814,2.58ZM0.082,2.58L8.634,14.58L10.263,13.42L1.711,1.42L0.082,2.58ZM10.263,14.58L18.814,2.58L17.186,1.42L8.634,13.42L10.263,14.58Z" fill="#000000"/>
</svg>
