<svg width="36" height="50" viewBox="0 0 36 50" fill="none" xmlns="http://www.w3.org/2000/svg" xmlns:xlink="http://www.w3.org/1999/xlink">
<path d="M2,2L2,0C0.895,0 0,0.895 0,2L2,2ZM2,48L0,48C0,48.774 0.447,49.479 1.147,49.809C1.847,50.139 2.675,50.036 3.272,49.543L2,48ZM18.34,34.529L19.645,33.012C18.907,32.378 17.819,32.366 17.068,32.985L18.34,34.529ZM34,48L32.696,49.516C33.288,50.026 34.124,50.144 34.834,49.818C35.545,49.492 36,48.782 36,48L34,48ZM34,2L36,2C36,0.895 35.105,0 34,0L34,2ZM0,2L0,48L4,48L4,2L0,2ZM3.272,49.543L19.613,36.072L17.068,32.985L0.728,46.457L3.272,49.543ZM17.036,36.045L32.696,49.516L35.304,46.484L19.645,33.012L17.036,36.045ZM36,48L36,2L32,2L32,48L36,48ZM34,0L2,0L2,4L34,4L34,0Z" fill="#000000"/>
</svg>
