<svg width="20" height="16" viewBox="0 0 20 16" fill="none" xmlns="http://www.w3.org/2000/svg" xmlns:xlink="http://www.w3.org/1999/xlink">
<path d="M0.836,1.401C0.505,0.959 -0.122,0.868 -0.564,1.199C-1.006,1.53 -1.096,2.157 -0.765,2.599L0.836,1.401ZM9.018,14L8.217,14.599C8.406,14.851 8.703,15 9.018,15C9.333,15 9.629,14.851 9.818,14.599L9.018,14ZM18.801,2.599C19.132,2.157 19.041,1.53 18.599,1.199C18.157,0.868 17.53,0.959 17.2,1.401L18.801,2.599ZM-0.765,2.599L8.217,14.599L9.818,13.401L0.836,1.401L-0.765,2.599ZM9.818,14.599L18.801,2.599L17.2,1.401L8.217,13.401L9.818,14.599Z" fill="#000000"/>
</svg>
