<svg width="28" height="16" viewBox="0 0 28 16" fill="none" xmlns="http://www.w3.org/2000/svg" xmlns:xlink="http://www.w3.org/1999/xlink">
<path d="M1.258,1.273C0.856,0.894 0.223,0.912 -0.156,1.314C-0.535,1.715 -0.517,2.348 -0.115,2.727L1.258,1.273ZM13.286,14L12.599,14.727C12.985,15.091 13.587,15.091 13.972,14.727L13.286,14ZM26.686,2.727C27.088,2.348 27.106,1.715 26.727,1.314C26.348,0.912 25.715,0.894 25.313,1.273L26.686,2.727ZM-0.115,2.727L12.599,14.727L13.972,13.273L1.258,1.273L-0.115,2.727ZM13.972,14.727L26.686,2.727L25.313,1.273L12.599,13.273L13.972,14.727Z" fill="#000000"/>
</svg>
