<svg width="28" height="16" viewBox="0 0 28 16" fill="none" xmlns="http://www.w3.org/2000/svg" xmlns:xlink="http://www.w3.org/1999/xlink">
<path d="M2.707,1.293C2.317,0.902 1.683,0.902 1.293,1.293C0.902,1.683 0.902,2.317 1.293,2.707L2.707,1.293ZM14,14L13.293,14.707C13.683,15.098 14.317,15.098 14.707,14.707L14,14ZM26.707,2.707C27.098,2.317 27.098,1.683 26.707,1.293C26.317,0.902 25.683,0.902 25.293,1.293L26.707,2.707ZM1.293,2.707L13.293,14.707L14.707,13.293L2.707,1.293L1.293,2.707ZM14.707,14.707L26.707,2.707L25.293,1.293L13.293,13.293L14.707,14.707Z" fill="#000000"/>
</svg>
