<svg width="30" height="16" viewBox="0 0 30 16" fill="none" xmlns="http://www.w3.org/2000/svg" xmlns:xlink="http://www.w3.org/1999/xlink">
<path d="M1.718,1.253C1.305,0.886 0.673,0.922 0.306,1.335C-0.061,1.747 -0.025,2.379 0.388,2.747L1.718,1.253ZM14.526,14L13.861,14.747C14.24,15.084 14.812,15.084 15.192,14.747L14.526,14ZM28.665,2.747C29.078,2.379 29.114,1.747 28.747,1.335C28.38,0.922 27.748,0.886 27.335,1.253L28.665,2.747ZM0.388,2.747L13.861,14.747L15.192,13.253L1.718,1.253L0.388,2.747ZM15.192,14.747L28.665,2.747L27.335,1.253L13.861,13.253L15.192,14.747Z" fill="#000000"/>
</svg>
