<svg width="40" height="38" viewBox="0 0 40 38" fill="none" xmlns="http://www.w3.org/2000/svg" xmlns:xlink="http://www.w3.org/1999/xlink">
<path d="M2.658,17.317C1.176,18.058 0.576,19.86 1.317,21.342C2.058,22.824 3.86,23.424 5.342,22.683L2.658,17.317ZM37.342,6.683C38.824,5.942 39.424,4.14 38.683,2.658C37.942,1.176 36.14,0.576 34.658,1.317L37.342,6.683ZM5.342,22.683L37.342,6.683L34.658,1.317L2.658,17.317L5.342,22.683Z" fill="#000000"/>
<path d="M32.588,36.647C34.05,37.427 35.867,36.874 36.647,35.412C37.427,33.95 36.874,32.133 35.412,31.353L32.588,36.647ZM5.412,15.353C3.95,14.573 2.133,15.126 1.353,16.588C0.573,18.05 1.126,19.867 2.588,20.647L5.412,15.353ZM35.412,31.353L5.412,15.353L2.588,20.647L32.588,36.647L35.412,31.353Z" fill="#000000"/>
</svg>
