<svg width="48" height="48" viewBox="0 0 48 48" fill="none" xmlns="http://www.w3.org/2000/svg" xmlns:xlink="http://www.w3.org/1999/xlink">
<line x1="10" y1="22.5" x2="38" y2="22.5" stroke="#BB362A" stroke-width="1.5" stroke-miterlimit="3.999327" stroke-linecap="round" stroke-linejoin="round"/>
<path d="M25.061,8.939C24.475,8.354 23.525,8.354 22.939,8.939C22.354,9.525 22.354,10.475 22.939,11.061L25.061,8.939ZM38,24L39.061,25.061C39.646,24.475 39.646,23.525 39.061,22.939L38,24ZM22.939,36.939C22.354,37.525 22.354,38.475 22.939,39.061C23.525,39.646 24.475,39.646 25.061,39.061L22.939,36.939ZM22.939,11.061L36.939,25.061L39.061,22.939L25.061,8.939L22.939,11.061ZM36.939,22.939L22.939,36.939L25.061,39.061L39.061,25.061L36.939,22.939Z" fill="#BB362A"/>
</svg>
