<svg width="44" height="44" viewBox="0 0 44 44" fill="none" xmlns="http://www.w3.org/2000/svg" xmlns:xlink="http://www.w3.org/1999/xlink">
<path d="M38.5,18.333L40,18.333L38.5,18.333ZM22,42.167L21.168,43.415C21.672,43.751 22.328,43.751 22.832,43.415L22,42.167ZM5.5,18.333L4,18.333L5.5,18.333ZM22,1.833L22,3.333L22,1.833ZM37,18.333C37,24.147 33.226,29.74 29.161,34.031C27.159,36.144 25.152,37.873 23.644,39.074C22.891,39.673 22.265,40.139 21.831,40.453C21.614,40.61 21.444,40.728 21.331,40.807C21.275,40.846 21.232,40.875 21.205,40.894C21.191,40.903 21.181,40.91 21.175,40.914C21.172,40.916 21.169,40.917 21.168,40.918C21.168,40.919 21.167,40.919 21.167,40.919C21.167,40.919 21.168,40.919 21.167,40.919C21.168,40.919 21.168,40.918 22,42.167C22.832,43.415 22.832,43.414 22.833,43.414C22.833,43.414 22.834,43.414 22.834,43.413C22.835,43.413 22.836,43.412 22.838,43.411C22.841,43.409 22.844,43.406 22.849,43.403C22.859,43.396 22.873,43.387 22.89,43.375C22.925,43.352 22.975,43.318 23.039,43.273C23.168,43.184 23.353,43.054 23.587,42.885C24.055,42.547 24.719,42.053 25.513,41.421C27.098,40.158 29.216,38.335 31.339,36.094C35.524,31.677 40,25.353 40,18.333L37,18.333ZM22,42.167C22.832,40.918 22.832,40.919 22.833,40.919C22.832,40.919 22.833,40.919 22.833,40.919C22.833,40.919 22.832,40.919 22.832,40.918C22.831,40.917 22.828,40.916 22.825,40.914C22.819,40.91 22.809,40.903 22.795,40.894C22.768,40.875 22.725,40.846 22.669,40.807C22.556,40.728 22.386,40.61 22.169,40.453C21.735,40.139 21.109,39.673 20.356,39.074C18.848,37.873 16.841,36.144 14.839,34.031C10.774,29.74 7,24.147 7,18.333L4,18.333C4,25.353 8.476,31.677 12.661,36.094C14.784,38.335 16.902,40.158 18.487,41.421C19.281,42.053 19.945,42.547 20.413,42.885C20.647,43.054 20.832,43.184 20.961,43.273C21.025,43.318 21.075,43.352 21.11,43.375C21.127,43.387 21.141,43.396 21.151,43.403C21.156,43.406 21.159,43.409 21.162,43.411C21.164,43.412 21.165,43.413 21.166,43.413C21.166,43.414 21.167,43.414 21.167,43.414C21.168,43.414 21.168,43.415 22,42.167ZM7,18.333C7,14.355 8.58,10.54 11.393,7.727L9.272,5.605C5.896,8.981 4,13.559 4,18.333L7,18.333ZM11.393,7.727C14.206,4.914 18.022,3.333 22,3.333L22,0.333C17.226,0.333 12.648,2.23 9.272,5.605L11.393,7.727ZM22,3.333C25.978,3.333 29.794,4.914 32.607,7.727L34.728,5.605C31.352,2.23 26.774,0.333 22,0.333L22,3.333ZM32.607,7.727C35.42,10.54 37,14.355 37,18.333L40,18.333C40,13.559 38.104,8.981 34.728,5.605L32.607,7.727Z" fill="#C5C9D6"/>
<path d="M26,18.333C26,20.542 24.209,22.333 22,22.333L22,25.333C25.866,25.333 29,22.199 29,18.333L26,18.333ZM22,22.333C19.791,22.333 18,20.542 18,18.333L15,18.333C15,22.199 18.134,25.333 22,25.333L22,22.333ZM18,18.333C18,16.124 19.791,14.333 22,14.333L22,11.333C18.134,11.333 15,14.467 15,18.333L18,18.333ZM22,14.333C24.209,14.333 26,16.124 26,18.333L29,18.333C29,14.467 25.866,11.333 22,11.333L22,14.333Z" fill="#C5C9D6"/>
</svg>
