<svg width="148" height="66" viewBox="0 0 148 66" fill="none" xmlns="http://www.w3.org/2000/svg" xmlns:xlink="http://www.w3.org/1999/xlink">
<path d="M104,2L104,0.4C103.116,0.4 102.4,1.116 102.4,2L104,2ZM104,62.8L102.4,62.8C102.4,63.422 102.76,63.987 103.323,64.25C103.887,64.513 104.551,64.426 105.028,64.026L104,62.8ZM125.243,44.994L126.296,43.79C125.702,43.271 124.819,43.262 124.215,43.768L125.243,44.994ZM145.6,62.8L144.547,64.004C145.019,64.418 145.69,64.516 146.261,64.257C146.833,63.997 147.2,63.428 147.2,62.8L145.6,62.8ZM145.6,2L147.2,2C147.2,1.116 146.484,0.4 145.6,0.4L145.6,2ZM102.4,2L102.4,62.8L105.6,62.8L105.6,2L102.4,2ZM105.028,64.026L126.27,46.22L124.215,43.768L102.972,61.574L105.028,64.026ZM124.189,46.199L144.547,64.004L146.653,61.596L126.296,43.79L124.189,46.199ZM147.2,62.8L147.2,2L144,2L144,62.8L147.2,62.8ZM145.6,0.4L104,0.4L104,3.6L145.6,3.6L145.6,0.4Z" fill="#555658"/>
<path d="M20.8,32.4C20.8,37.702 16.144,42 10.4,42C4.656,42 0,37.702 0,32.4C0,27.098 4.656,22.8 10.4,22.8C16.144,22.8 20.8,27.098 20.8,32.4Z" fill="#555658"/>
<circle cx="50.4" cy="12.4" r="10.4" fill="#555658"/>
<circle cx="50.4" cy="52.4" r="10.4" fill="#555658"/>
<path d="M8.558,30.238C7.364,30.813 6.862,32.247 7.437,33.441C8.012,34.635 9.447,35.137 10.641,34.562L8.558,30.238ZM53.841,13.762C55.035,13.187 55.537,11.753 54.962,10.559C54.387,9.365 52.953,8.863 51.758,9.438L53.841,13.762ZM10.641,34.562L53.841,13.762L51.758,9.438L8.558,30.238L10.641,34.562Z" fill="#555658"/>
<path d="M48.39,55.273C49.535,55.941 51.004,55.554 51.672,54.409C52.34,53.264 51.953,51.795 50.808,51.127L48.39,55.273ZM12.409,28.727C11.264,28.059 9.794,28.446 9.126,29.591C8.458,30.735 8.845,32.205 9.99,32.873L12.409,28.727ZM50.808,51.127L12.409,28.727L9.99,32.873L48.39,55.273L50.808,51.127Z" fill="#555658"/>
</svg>
