<svg width="148" height="64" viewBox="0 0 148 64" fill="none" xmlns="http://www.w3.org/2000/svg" xmlns:xlink="http://www.w3.org/1999/xlink">
<path d="M104.199,1.6L104.199,0C103.316,0 102.599,0.716 102.599,1.6L104.199,1.6ZM104.199,62.4L102.599,62.4C102.599,63.022 102.959,63.587 103.523,63.85C104.086,64.113 104.751,64.026 105.227,63.626L104.199,62.4ZM125.442,44.594L126.495,43.39C125.902,42.871 125.018,42.862 124.414,43.368L125.442,44.594ZM145.799,62.4L144.746,63.604C145.218,64.018 145.889,64.116 146.46,63.857C147.032,63.597 147.399,63.028 147.399,62.4L145.799,62.4ZM145.799,1.6L147.399,1.6C147.399,0.716 146.683,0 145.799,0L145.799,1.6ZM102.599,1.6L102.599,62.4L105.799,62.4L105.799,1.6L102.599,1.6ZM105.227,63.626L126.47,45.82L124.414,43.368L103.171,61.174L105.227,63.626ZM124.388,45.799L144.746,63.604L146.853,61.196L126.495,43.39L124.388,45.799ZM147.399,62.4L147.399,1.6L144.199,1.6L144.199,62.4L147.399,62.4ZM145.799,0L104.199,0L104.199,3.2L145.799,3.2L145.799,0Z" fill="#555658"/>
<path d="M20.999,32C20.999,37.302 16.343,41.6 10.599,41.6C4.855,41.6 0.199,37.302 0.199,32C0.199,26.698 4.855,22.4 10.599,22.4C16.343,22.4 20.999,26.698 20.999,32Z" fill="#555658"/>
<circle cx="50.599" cy="12" r="10.4" fill="#555658"/>
<circle cx="50.599" cy="52" r="10.4" fill="#555658"/>
<path d="M8.758,29.838C7.563,30.413 7.061,31.847 7.636,33.041C8.211,34.236 9.646,34.738 10.84,34.163L8.758,29.838ZM54.04,13.363C55.234,12.788 55.736,11.353 55.161,10.159C54.586,8.965 53.152,8.463 51.958,9.038L54.04,13.363ZM10.84,34.163L54.04,13.363L51.958,9.038L8.758,29.838L10.84,34.163Z" fill="#555658"/>
<path d="M48.589,54.873C49.734,55.541 51.204,55.154 51.871,54.009C52.539,52.864 52.153,51.395 51.008,50.727L48.589,54.873ZM12.608,28.327C11.463,27.659 9.993,28.046 9.325,29.191C8.657,30.336 9.044,31.805 10.189,32.473L12.608,28.327ZM51.008,50.727L12.608,28.327L10.189,32.473L48.589,54.873L51.008,50.727Z" fill="#555658"/>
</svg>
