<svg width="146" height="62" viewBox="0 0 146 62" fill="none" xmlns="http://www.w3.org/2000/svg" xmlns:xlink="http://www.w3.org/1999/xlink">
<path d="M104.199,61.4L104.199,0.6L145.799,0.6L145.799,61.4L125.442,43.594L104.199,61.4Z" fill="#555658" stroke="#555658" stroke-width="1.6" stroke-miterlimit="3.999327" stroke-linecap="round" stroke-linejoin="round"/>
<path d="M20.999,31C20.999,36.302 16.343,40.6 10.599,40.6C4.855,40.6 0.199,36.302 0.199,31C0.199,25.698 4.855,21.4 10.599,21.4C16.343,21.4 20.999,25.698 20.999,31Z" fill="#555658"/>
<circle cx="50.599" cy="11" r="10.4" fill="#555658"/>
<circle cx="50.599" cy="51" r="10.4" fill="#555658"/>
<path d="M8.758,28.838C7.563,29.413 7.061,30.847 7.636,32.041C8.211,33.236 9.646,33.738 10.84,33.163L8.758,28.838ZM54.04,12.363C55.234,11.788 55.736,10.353 55.161,9.159C54.586,7.965 53.152,7.463 51.958,8.038L54.04,12.363ZM10.84,33.163L54.04,12.363L51.958,8.038L8.758,28.838L10.84,33.163Z" fill="#555658"/>
<path d="M48.589,53.873C49.734,54.541 51.204,54.154 51.871,53.009C52.539,51.864 52.153,50.395 51.008,49.727L48.589,53.873ZM12.608,27.327C11.463,26.659 9.993,27.046 9.325,28.191C8.657,29.336 9.044,30.805 10.189,31.473L12.608,27.327ZM51.008,49.727L12.608,27.327L10.189,31.473L48.589,53.873L51.008,49.727Z" fill="#555658"/>
</svg>
