<svg width="28" height="16" viewBox="0 0 28 16" fill="none" xmlns="http://www.w3.org/2000/svg" xmlns:xlink="http://www.w3.org/1999/xlink">
<path d="M1.693,1.279C1.294,0.896 0.661,0.909 0.279,1.307C-0.104,1.706 -0.091,2.339 0.307,2.721L1.693,1.279ZM13.5,14L12.807,14.721C13.194,15.093 13.806,15.093 14.193,14.721L13.5,14ZM26.693,2.721C27.091,2.339 27.104,1.706 26.721,1.307C26.339,0.909 25.706,0.896 25.307,1.279L26.693,2.721ZM0.307,2.721L12.807,14.721L14.193,13.279L1.693,1.279L0.307,2.721ZM14.193,14.721L26.693,2.721L25.307,1.279L12.807,13.279L14.193,14.721Z" fill="#000000"/>
</svg>
