<svg width="56" height="80" viewBox="0 0 56 80" fill="none" xmlns="http://www.w3.org/2000/svg" xmlns:xlink="http://www.w3.org/1999/xlink">
<path d="M2,2L2,0C0.895,0 0,0.895 0,2L2,2ZM2,78L0,78C0,78.777 0.45,79.484 1.154,79.812C1.858,80.141 2.689,80.032 3.285,79.533L2,78ZM28.553,55.743L29.87,54.237C29.128,53.589 28.024,53.577 27.268,54.21L28.553,55.743ZM54,78L52.683,79.505C53.274,80.022 54.112,80.146 54.827,79.821C55.541,79.497 56,78.785 56,78L54,78ZM54,2L56,2C56,0.895 55.105,0 54,0L54,2ZM0,2L0,78L4,78L4,2L0,2ZM3.285,79.533L29.838,57.276L27.268,54.21L0.715,76.467L3.285,79.533ZM27.236,57.248L52.683,79.505L55.317,76.495L29.87,54.237L27.236,57.248ZM56,78L56,2L52,2L52,78L56,78ZM54,0L2,0L2,4L54,4L54,0Z" fill="#555658"/>
</svg>
