<svg width="30" height="16" viewBox="0 0 30 16" fill="none" xmlns="http://www.w3.org/2000/svg" xmlns:xlink="http://www.w3.org/1999/xlink">
<path d="M1.75,1.254C1.337,0.886 0.705,0.922 0.338,1.334C-0.03,1.747 0.006,2.379 0.418,2.746L1.75,1.254ZM14.542,14L13.876,14.746C14.256,15.085 14.828,15.085 15.207,14.746L14.542,14ZM28.665,2.746C29.078,2.379 29.114,1.747 28.746,1.334C28.379,0.922 27.747,0.886 27.334,1.254L28.665,2.746ZM0.418,2.746L13.876,14.746L15.207,13.254L1.75,1.254L0.418,2.746ZM15.207,14.746L28.665,2.746L27.334,1.254L13.876,13.254L15.207,14.746Z" fill="#000000"/>
</svg>
