<svg width="58" height="48" viewBox="0 0 58 48" fill="none" xmlns="http://www.w3.org/2000/svg" xmlns:xlink="http://www.w3.org/1999/xlink">
<path d="M19.048,1.147C21.545,1.924 22.319,3.933 22.319,6.223C22.298,8.037 22.083,9.852 21.652,11.623C20.727,15.662 19.586,19.658 18.64,23.676C17.865,26.981 17.155,30.329 17.133,33.742C17.155,34.67 17.305,35.599 17.564,36.485C18.059,38.256 19.543,38.386 20.662,37.306C21.372,36.614 22.018,35.88 22.599,35.081C25.396,31.344 27.871,27.369 29.98,23.201C32.024,19.205 36.693,10.176 36.973,9.636C38.436,6.936 42.482,7.389 43.708,10.024C44.397,11.45 44.784,13.027 44.849,14.604C44.957,18.017 45.279,27.542 45.43,28.903C45.71,31.538 47.388,32.381 49.626,30.912C50.982,30.026 52.208,28.903 53.435,27.845C54.575,26.829 55.178,26.937 55.737,28.363C56.232,29.616 56.017,30.869 55.608,32.057C54.231,36.074 51.24,38.213 47.259,39.077C45.989,39.358 44.677,39.379 43.386,39.163C40.524,38.688 38.695,37.025 37.597,34.454C36.543,31.97 36.22,24.907 35.983,24C35.596,24.821 31.013,34.303 28.603,37.91C27.096,40.222 25.267,42.317 23.158,44.11C21.071,45.859 18.704,46.939 15.928,47.004C12.571,47.091 10.14,45.557 8.461,42.706C7.386,40.87 6.934,38.818 6.783,36.701C6.568,33.742 7.041,30.847 7.687,27.953C7.902,27.024 8.053,26.073 8.289,24.885C7.364,25.361 6.762,25.793 6.073,26.03C5.255,26.311 4.373,26.592 3.512,26.57C0.457,26.484 0.005,23.093 0.005,22.531C1.038,21.732 2.135,20.997 3.082,20.133C7.601,16.029 11.001,11.104 13.454,5.532C14.271,3.696 15.283,2.119 17.09,1.147C17.693,0.887 18.231,0.866 19.048,1.147Z" fill="#FFFFFF"/>
</svg>
